<!--?xml version="1.0" standalone="no"?-->
              <svg id="sw-js-blob-svg" viewBox="0 0 100 100" xmlns="http://www.w3.org/2000/svg" version="1.1">
                    <defs>
                        <linearGradient id="sw-gradient" x1="0" x2="1" y1="1" y2="0">
                            <stop id="stop1" stop-color="rgba(248, 117, 55, 1)" offset="0%"></stop>
                            <stop id="stop2" stop-color="rgba(251, 168, 31, 1)" offset="100%"></stop>
                        </linearGradient>
                    </defs>
                <path fill="url(#sw-gradient)" d="M24.8,-29.4C32.6,-22.9,39.9,-15.6,42.1,-6.8C44.4,1.9,41.6,12.2,35.9,19.3C30.1,26.5,21.3,30.5,12.6,32.9C3.8,35.4,-4.9,36.3,-12.3,33.7C-19.8,31.1,-26.1,24.9,-28.6,17.8C-31.1,10.8,-29.8,2.9,-29,-5.8C-28.3,-14.4,-28,-23.8,-23.3,-30.8C-18.5,-37.9,-9.3,-42.7,-0.4,-42.2C8.5,-41.7,16.9,-36,24.8,-29.4Z" width="100%" height="100%" transform="translate(50 50)" stroke-width="0" style="transition: all 0.3s ease 0s;"></path>
              </svg>