<?xml version="1.0" encoding="UTF-8"?>
<svg xmlns="http://www.w3.org/2000/svg" xml:space="preserve" width="1.70666in" height="1.70666in"
    version="1.1"
    style="shape-rendering:geometricPrecision; text-rendering:geometricPrecision; image-rendering:optimizeQuality; fill-rule:evenodd; clip-rule:evenodd"
    viewBox="0 0 1707 1707">
 <g id="Layer_x0020_1">
  <g id="_418412104">
   <g>
    <g id="_418406560">
     <path class="fil0"
         d="M1382 1707l-1057 0c-91,0 -165,-74 -165,-165l0 -1377c0,-91 74,-165 165,-165l1057 0c91,0 165,74 165,165l0 1377c0,91 -74,165 -165,165zm-1057 -1660c-65,0 -118,53 -118,118l0 1377c0,65 53,118 118,118l1057 0c65,0 118,-53 118,-118l0 -1377c0,-65 -53,-118 -118,-118l-1057 0z" />
    </g>
       <g id="_418397704">
     <path class="fil0"
         d="M998 1548l-677 0c-13,0 -23,-10 -23,-23l0 -1343c0,-13 10,-24 23,-24l1065 0c12,0 23,11 23,24l0 1016c0,12 -11,23 -23,23l-364 0 0 304c0,13 -11,23 -24,23zm-654 -46l631 0 0 -304c0,-13 11,-24 23,-24l364 0 0 -969 -1018 0 0 1297z" />
    </g>
       <g id="_418404256">
     <path class="fil0"
         d="M998 1548c-3,0 -6,0 -9,-2 -9,-4 -14,-12 -14,-21l0 -327c0,-13 11,-24 23,-24l388 0c9,0 18,6 21,16 4,9 1,19 -6,25l-387 328c-5,4 -10,5 -16,5zm24 -327l0 254 300 -254 -300 0z" />
    </g>
       <g id="_418414600">
     <path class="fil0"
         d="M1092 335l-477 0c-39,0 -72,-32 -72,-72l0 -240c0,-13 11,-23 24,-23l573 0c13,0 23,10 23,23l0 240c0,40 -32,72 -71,72zm-502 -288l0 216c0,14 11,25 25,25l477 0c13,0 25,-11 25,-25l0 -216 -527 0z" />
    </g>
       <g>
     <g>
      <g id="_418391560">
       <path class="fil0"
           d="M689 725c-40,0 -79,-15 -109,-45 -60,-60 -60,-157 0,-217 29,-29 68,-45 109,-45 41,0 79,16 108,45 9,9 9,24 0,33 -9,9 -24,9 -33,0 -20,-20 -47,-31 -75,-31 -29,0 -56,11 -76,31 -42,42 -42,110 0,151 42,42 110,42 151,0 9,-9 24,-9 33,0 9,9 9,24 0,33 -30,30 -69,45 -108,45z" />
      </g>
         <g id="_418410472">
       <path class="fil0"
           d="M1019 707l0 0c-9,0 -16,-4 -21,-11l-129 -225c-6,-11 -3,-25 9,-32 11,-6 25,-2 31,9l110 189 109 -189c6,-11 21,-15 32,-9 11,7 15,21 8,32l-129 225c-4,7 -12,11 -20,11z" />
      </g>
     </g>
           <g>
      <g id="_418386856">
       <path class="fil0"
           d="M1203 838l-700 0c-12,0 -23,-10 -23,-23 0,-13 11,-24 23,-24l700 0c13,0 24,11 24,24 0,13 -11,23 -24,23z" />
      </g>
               <g id="_418404472">
       <path class="fil0"
           d="M1203 965l-700 0c-12,0 -23,-11 -23,-24 0,-13 11,-23 23,-23l700 0c13,0 24,10 24,23 0,13 -11,24 -24,24z" />
      </g>
               <g id="_418395136">
       <path class="fil0"
           d="M1203 1091l-700 0c-12,0 -23,-10 -23,-23 0,-13 11,-23 23,-23l700 0c13,0 24,10 24,23 0,13 -11,23 -24,23z" />
      </g>
     </g>
    </g>
   </g>
  </g>
 </g>
</svg>
