<svg xmlns="http://www.w3.org/2000/svg" viewBox="0 0 50 50" id="linkedin"><path d="M44 1H6C3.243 1 1 3.243 1 6v38c0 2.757 2.243 5 5 5h38c2.757 0 5-2.243 5-5V6c0-2.757-2.243-5-5-5zm3 43c0 1.654-1.346 3-3 3H6c-1.654 0-3-1.346-3-3V6c0-1.654 1.346-3 3-3h38c1.654 0 3 1.346 3 3v38z"></path><path d="M8 42h8V19H8v23zm2-21h4v19h-4V21zM12 7c-2.757 0-5 2.243-5 5s2.243 5 5 5 5-2.243 5-5-2.243-5-5-5zm0 8c-1.654 0-3-1.346-3-3s1.346-3 3-3 3 1.346 3 3-1.346 3-3 3zM31 19c-1.363 0-2.703.308-4 .916V19h-8v23h8V31c0-2.206 1.794-4 4-4s4 1.794 4 4v11h8V31c0-6.617-5.383-12-12-12zm10 21h-4v-9c0-3.309-2.691-6-6-6s-6 2.691-6 6v9h-4V21h4v2.521l1.561-1.057C27.996 21.493 29.489 21 31 21c5.514 0 10 4.486 10 10v9z"></path></svg>